<svg width="70" height="70" viewBox="0 0 70 70" fill="none" xmlns="http://www.w3.org/2000/svg">
<circle opacity="0.8" cx="35" cy="35.0002" r="35" fill="url(#paint0_linear_2_125)"/>
<circle cx="35" cy="35.0002" r="29.2464" fill="white" stroke="black" stroke-width="2.57111"/>
<circle cx="35.3209" cy="34.6784" r="24.4255" stroke="black" stroke-width="1.92833" stroke-linecap="round" stroke-linejoin="round" stroke-dasharray="0.02 2.92"/>
<path d="M25.3697 44.6802C23.9755 44.5656 22.839 44.3555 21.9604 44.0499C21.101 43.7252 20.4611 43.4578 20.0409 43.2477L21.2728 39.953C21.9413 40.2777 22.734 40.5738 23.6508 40.8411C24.5866 41.1085 25.5703 41.2422 26.6017 41.2422C27.7667 41.2422 28.5594 41.0894 28.9796 40.7838C29.4189 40.4592 29.6385 40.0103 29.6385 39.4373C29.6385 39.0744 29.5526 38.7688 29.3807 38.5205C29.2088 38.2531 28.9605 38.0144 28.6358 37.8043C28.3111 37.5942 27.9004 37.3937 27.4038 37.2027C26.9072 36.9926 26.3343 36.7729 25.6849 36.5437C25.0546 36.3145 24.4338 36.0662 23.8227 35.7988C23.2306 35.5123 22.6862 35.1685 22.1896 34.7675C21.7121 34.3664 21.3206 33.8793 21.015 33.3063C20.7285 32.7142 20.5853 32.0076 20.5853 31.1863C20.5853 30.556 20.6712 29.9543 20.8431 29.3813C21.0341 28.7893 21.3206 28.2545 21.7026 27.777C22.0846 27.2995 22.5812 26.8984 23.1924 26.5737C23.8036 26.2299 24.5293 25.9816 25.3697 25.8288V22.7347H28.9796V25.7142C29.9727 25.8097 30.8227 25.953 31.5294 26.144C32.2552 26.335 32.8281 26.5259 33.2483 26.7169L32.3602 30.1549C31.7299 29.8875 30.9946 29.6583 30.1542 29.4673C29.3329 29.2763 28.4639 29.1808 27.5471 29.1808C26.6303 29.1808 25.9714 29.3336 25.5703 29.6392C25.1692 29.9448 24.9686 30.3459 24.9686 30.8425C24.9686 31.1481 25.0259 31.4155 25.1405 31.6447C25.2742 31.8548 25.4748 32.0458 25.7422 32.2176C26.0096 32.3895 26.3343 32.5614 26.7163 32.7333C27.1173 32.8861 27.5948 33.058 28.1487 33.249C28.9891 33.5546 29.7626 33.8889 30.4693 34.2518C31.1951 34.6147 31.8159 35.0348 32.3316 35.5123C32.8663 35.9707 33.277 36.5151 33.5635 37.1454C33.8691 37.7757 34.0219 38.511 34.0219 39.3514C34.0219 39.9244 33.9359 40.4974 33.764 41.0703C33.5921 41.6242 33.3056 42.1399 32.9045 42.6174C32.5035 43.0949 31.9782 43.5056 31.3288 43.8493C30.6985 44.1931 29.9154 44.4414 28.9796 44.5942V48.0895H25.3697V44.6802ZM41.6529 44.6802C40.2587 44.5656 39.1222 44.3555 38.2436 44.0499C37.3842 43.7252 36.7443 43.4578 36.3241 43.2477L37.5561 39.953C38.2245 40.2777 39.0172 40.5738 39.934 40.8411C40.8699 41.1085 41.8535 41.2422 42.8849 41.2422C44.0499 41.2422 44.8426 41.0894 45.2628 40.7838C45.7021 40.4592 45.9217 40.0103 45.9217 39.4373C45.9217 39.0744 45.8358 38.7688 45.6639 38.5205C45.492 38.2531 45.2437 38.0144 44.919 37.8043C44.5943 37.5942 44.1836 37.3937 43.6871 37.2027C43.1905 36.9926 42.6175 36.7729 41.9681 36.5437C41.3378 36.3145 40.7171 36.0662 40.1059 35.7988C39.5138 35.5123 38.9694 35.1685 38.4728 34.7675C37.9954 34.3664 37.6038 33.8793 37.2982 33.3063C37.0117 32.7142 36.8685 32.0076 36.8685 31.1863C36.8685 30.556 36.9544 29.9543 37.1263 29.3813C37.3173 28.7893 37.6038 28.2545 37.9858 27.777C38.3678 27.2995 38.8644 26.8984 39.4756 26.5737C40.0868 26.2299 40.8126 25.9816 41.6529 25.8288V22.7347H45.2628V25.7142C46.256 25.8097 47.1059 25.953 47.8126 26.144C48.5384 26.335 49.1114 26.5259 49.5315 26.7169L48.6434 30.1549C48.0131 29.8875 47.2778 29.6583 46.4374 29.4673C45.6161 29.2763 44.7471 29.1808 43.8303 29.1808C42.9135 29.1808 42.2546 29.3336 41.8535 29.6392C41.4524 29.9448 41.2518 30.3459 41.2518 30.8425C41.2518 31.1481 41.3091 31.4155 41.4237 31.6447C41.5574 31.8548 41.758 32.0458 42.0254 32.2176C42.2928 32.3895 42.6175 32.5614 42.9995 32.7333C43.4006 32.8861 43.878 33.058 44.4319 33.249C45.2723 33.5546 46.0459 33.8889 46.7525 34.2518C47.4783 34.6147 48.0991 35.0348 48.6148 35.5123C49.1496 35.9707 49.5602 36.5151 49.8467 37.1454C50.1523 37.7757 50.3051 38.511 50.3051 39.3514C50.3051 39.9244 50.2191 40.4974 50.0472 41.0703C49.8753 41.6242 49.5888 42.1399 49.1878 42.6174C48.7867 43.0949 48.2614 43.5056 47.612 43.8493C46.9817 44.1931 46.1987 44.4414 45.2628 44.5942V48.0895H41.6529V44.6802Z" fill="black"/>
<defs>
<linearGradient id="paint0_linear_2_125" x1="70" y1="64.7562" x2="-6.31952" y2="53.8077" gradientUnits="userSpaceOnUse">
<stop stop-color="#FF2A6D"/>
<stop offset="0.516647" stop-color="#A07EFF"/>
<stop offset="1" stop-color="#3DFFFF"/>
</linearGradient>
</defs>
</svg>
