<svg width="20" height="13" viewBox="0 0 20 13" fill="none" xmlns="http://www.w3.org/2000/svg">
<path d="M11.3685 0.359694C11.9878 0.550659 12.5355 0.975246 12.8613 1.58761C13.3607 2.5262 13.1984 3.64524 12.5456 4.41177L14.5838 7.76278C15.3224 7.55705 16.1055 7.71202 16.718 8.1436L18.3759 6.75886L19.2482 7.80479L17.5746 9.20571C18.0798 10.394 17.6108 11.8069 16.4512 12.4238C15.2264 13.0755 13.6871 12.6014 13.0355 11.3767C12.5191 10.4062 12.7152 9.24641 13.4247 8.47952L11.411 5.16871C10.8223 5.35924 10.1999 5.31598 9.64979 5.08447L6.55375 8.82063C6.61203 8.90376 6.67444 8.98239 6.72328 9.07406C7.37487 10.2988 6.90353 11.8431 5.67876 12.4947C4.454 13.1464 2.9147 12.6722 2.26305 11.4475C1.89557 10.7569 1.89542 9.9712 2.17537 9.29658L0.0371709 7.50575L0.911286 6.46513L3.01753 8.22743C3.11067 8.15986 3.2013 8.08895 3.3057 8.03331C4.00958 7.65883 4.81386 7.66423 5.49809 7.96029L8.58405 4.23513C8.52028 4.14614 8.45375 4.06037 8.40103 3.96116C7.74943 2.73644 8.22078 1.19218 9.44555 0.540533C10.0579 0.214668 10.749 0.169569 11.3685 0.359694Z" fill="#00D7D7"/>
</svg>
